{
	"asset":{
		"generator":"Khronos glTF Blender I/O v3.6.27",
		"version":"2.0"
	},
	"extensionsUsed":[
		"KHR_materials_clearcoat"
	],
	"scene":0,
	"scenes":[
		{
			"name":"Scene",
			"nodes":[
				0
			]
		}
	],
	"nodes":[
		{
			"mesh":0,
			"name":"Black bitshop"
		}
	],
	"materials":[
		{
			"doubleSided":true,
			"extensions":{
				"KHR_materials_clearcoat":{
					"clearcoatFactor":1,
					"clearcoatRoughnessFactor":0.029999999329447746
				}
			},
			"name":"Material.003",
			"pbrMetallicRoughness":{
				"baseColorFactor":[
					0,
					0,
					0,
					1
				],
				"metallicFactor":0,
				"roughnessFactor":0.5
			}
		}
	],
	"meshes":[
		{
			"name":"Sphere.005",
			"primitives":[
				{
					"attributes":{
						"POSITION":0,
						"NORMAL":1,
						"TEXCOORD_0":2
					},
					"indices":3,
					"material":0
				}
			]
		}
	],
	"accessors":[
		{
			"bufferView":0,
			"componentType":5126,
			"count":7356,
			"max":[
				0.7865678668022156,
				3.5998783111572266,
				0.787765383720398
			],
			"min":[
				-0.7889634966850281,
				0.0003254413604736328,
				-0.7877659797668457
			],
			"type":"VEC3"
		},
		{
			"bufferView":1,
			"componentType":5126,
			"count":7356,
			"type":"VEC3"
		},
		{
			"bufferView":2,
			"componentType":5126,
			"count":7356,
			"type":"VEC2"
		},
		{
			"bufferView":3,
			"componentType":5123,
			"count":33618,
			"type":"SCALAR"
		}
	],
	"bufferViews":[
		{
			"buffer":0,
			"byteLength":88272,
			"byteOffset":0,
			"target":34962
		},
		{
			"buffer":0,
			"byteLength":88272,
			"byteOffset":88272,
			"target":34962
		},
		{
			"buffer":0,
			"byteLength":58848,
			"byteOffset":176544,
			"target":34962
		},
		{
			"buffer":0,
			"byteLength":67236,
			"byteOffset":235392,
			"target":34963
		}
	],
	"buffers":[
		{
			"byteLength":302628,
			"uri":"black_bishop.bin"
		}
	]
}
