{
	"asset":{
		"generator":"Khronos glTF Blender I/O v3.6.27",
		"version":"2.0"
	},
	"extensionsUsed":[
		"KHR_materials_clearcoat"
	],
	"scene":0,
	"scenes":[
		{
			"name":"Scene",
			"nodes":[
				0
			]
		}
	],
	"nodes":[
		{
			"mesh":0,
			"name":"Black knight",
			"rotation":[
				0,
				-0.7068251967430115,
				0,
				0.7073883414268494
			]
		}
	],
	"materials":[
		{
			"doubleSided":true,
			"extensions":{
				"KHR_materials_clearcoat":{
					"clearcoatFactor":1,
					"clearcoatRoughnessFactor":0.029999999329447746
				}
			},
			"name":"Material.003",
			"pbrMetallicRoughness":{
				"baseColorFactor":[
					0,
					0,
					0,
					1
				],
				"metallicFactor":0,
				"roughnessFactor":0.5
			}
		}
	],
	"meshes":[
		{
			"name":"Mesh",
			"primitives":[
				{
					"attributes":{
						"POSITION":0,
						"NORMAL":1,
						"TEXCOORD_0":2
					},
					"indices":3,
					"material":0
				}
			]
		}
	],
	"accessors":[
		{
			"bufferView":0,
			"componentType":5126,
			"count":8827,
			"max":[
				0.8864997029304504,
				3.2483625411987305,
				0.7401123642921448
			],
			"min":[
				-0.8715758919715881,
				-0.0021004381123930216,
				-0.7401123642921448
			],
			"type":"VEC3"
		},
		{
			"bufferView":1,
			"componentType":5126,
			"count":8827,
			"type":"VEC3"
		},
		{
			"bufferView":2,
			"componentType":5126,
			"count":8827,
			"type":"VEC2"
		},
		{
			"bufferView":3,
			"componentType":5123,
			"count":43440,
			"type":"SCALAR"
		}
	],
	"bufferViews":[
		{
			"buffer":0,
			"byteLength":105924,
			"byteOffset":0,
			"target":34962
		},
		{
			"buffer":0,
			"byteLength":105924,
			"byteOffset":105924,
			"target":34962
		},
		{
			"buffer":0,
			"byteLength":70616,
			"byteOffset":211848,
			"target":34962
		},
		{
			"buffer":0,
			"byteLength":86880,
			"byteOffset":282464,
			"target":34963
		}
	],
	"buffers":[
		{
			"byteLength":369344,
			"uri":"black_knight.bin"
		}
	]
}
