{
	"asset":{
		"generator":"Khronos glTF Blender I/O v3.6.27",
		"version":"2.0"
	},
	"extensionsUsed":[
		"KHR_materials_clearcoat"
	],
	"scene":0,
	"scenes":[
		{
			"name":"Scene",
			"nodes":[
				0
			]
		}
	],
	"nodes":[
		{
			"mesh":0,
			"name":"Black king"
		}
	],
	"materials":[
		{
			"doubleSided":true,
			"extensions":{
				"KHR_materials_clearcoat":{
					"clearcoatFactor":1,
					"clearcoatRoughnessFactor":0.029999999329447746
				}
			},
			"name":"Material.003",
			"pbrMetallicRoughness":{
				"baseColorFactor":[
					0,
					0,
					0,
					1
				],
				"metallicFactor":0,
				"roughnessFactor":0.5
			}
		}
	],
	"meshes":[
		{
			"name":"Cylinder.013",
			"primitives":[
				{
					"attributes":{
						"POSITION":0,
						"NORMAL":1,
						"TEXCOORD_0":2
					},
					"indices":3,
					"material":0
				}
			]
		}
	],
	"accessors":[
		{
			"bufferView":0,
			"componentType":5126,
			"count":2885,
			"max":[
				0.7390562891960144,
				4.374636650085449,
				0.739056408405304
			],
			"min":[
				-0.739056408405304,
				0.0008528828620910645,
				-0.739056408405304
			],
			"type":"VEC3"
		},
		{
			"bufferView":1,
			"componentType":5126,
			"count":2885,
			"type":"VEC3"
		},
		{
			"bufferView":2,
			"componentType":5126,
			"count":2885,
			"type":"VEC2"
		},
		{
			"bufferView":3,
			"componentType":5123,
			"count":13656,
			"type":"SCALAR"
		}
	],
	"bufferViews":[
		{
			"buffer":0,
			"byteLength":34620,
			"byteOffset":0,
			"target":34962
		},
		{
			"buffer":0,
			"byteLength":34620,
			"byteOffset":34620,
			"target":34962
		},
		{
			"buffer":0,
			"byteLength":23080,
			"byteOffset":69240,
			"target":34962
		},
		{
			"buffer":0,
			"byteLength":27312,
			"byteOffset":92320,
			"target":34963
		}
	],
	"buffers":[
		{
			"byteLength":119632,
			"uri":"black_king.bin"
		}
	]
}
