{
	"asset":{
		"generator":"Khronos glTF Blender I/O v3.6.27",
		"version":"2.0"
	},
	"extensionsUsed":[
		"KHR_materials_clearcoat"
	],
	"scene":0,
	"scenes":[
		{
			"name":"Scene",
			"nodes":[
				0
			]
		}
	],
	"nodes":[
		{
			"mesh":0,
			"name":"Black rook"
		}
	],
	"materials":[
		{
			"doubleSided":true,
			"extensions":{
				"KHR_materials_clearcoat":{
					"clearcoatFactor":1,
					"clearcoatRoughnessFactor":0.029999999329447746
				}
			},
			"name":"Material.003",
			"pbrMetallicRoughness":{
				"baseColorFactor":[
					0,
					0,
					0,
					1
				],
				"metallicFactor":0,
				"roughnessFactor":0.5
			}
		}
	],
	"meshes":[
		{
			"name":"Cylinder.011",
			"primitives":[
				{
					"attributes":{
						"POSITION":0,
						"NORMAL":1,
						"TEXCOORD_0":2
					},
					"indices":3,
					"material":0
				}
			]
		}
	],
	"accessors":[
		{
			"bufferView":0,
			"componentType":5126,
			"count":6091,
			"max":[
				0.7516151070594788,
				2.6574811935424805,
				0.7516151070594788
			],
			"min":[
				-0.7516151070594788,
				-0.0015499889850616455,
				-0.7516151070594788
			],
			"type":"VEC3"
		},
		{
			"bufferView":1,
			"componentType":5126,
			"count":6091,
			"type":"VEC3"
		},
		{
			"bufferView":2,
			"componentType":5126,
			"count":6091,
			"type":"VEC2"
		},
		{
			"bufferView":3,
			"componentType":5123,
			"count":20238,
			"type":"SCALAR"
		}
	],
	"bufferViews":[
		{
			"buffer":0,
			"byteLength":73092,
			"byteOffset":0,
			"target":34962
		},
		{
			"buffer":0,
			"byteLength":73092,
			"byteOffset":73092,
			"target":34962
		},
		{
			"buffer":0,
			"byteLength":48728,
			"byteOffset":146184,
			"target":34962
		},
		{
			"buffer":0,
			"byteLength":40476,
			"byteOffset":194912,
			"target":34963
		}
	],
	"buffers":[
		{
			"byteLength":235388,
			"uri":"black_rook.bin"
		}
	]
}
