{
	"asset":{
		"generator":"Khronos glTF Blender I/O v3.6.27",
		"version":"2.0"
	},
	"extensionsUsed":[
		"KHR_materials_clearcoat"
	],
	"scene":0,
	"scenes":[
		{
			"name":"Scene",
			"nodes":[
				0
			]
		}
	],
	"nodes":[
		{
			"mesh":0,
			"name":"White king"
		}
	],
	"materials":[
		{
			"doubleSided":true,
			"extensions":{
				"KHR_materials_clearcoat":{
					"clearcoatFactor":1,
					"clearcoatRoughnessFactor":0.029999999329447746
				}
			},
			"name":"Material.004",
			"pbrMetallicRoughness":{
				"baseColorFactor":[
					0.4921916723251343,
					0.4921916723251343,
					0.4921916723251343,
					1
				],
				"metallicFactor":0,
				"roughnessFactor":0.5
			}
		}
	],
	"meshes":[
		{
			"name":"Cube",
			"primitives":[
				{
					"attributes":{
						"POSITION":0,
						"NORMAL":1,
						"TEXCOORD_0":2
					},
					"indices":3,
					"material":0
				}
			]
		}
	],
	"accessors":[
		{
			"bufferView":0,
			"componentType":5126,
			"count":3899,
			"max":[
				0.7320936322212219,
				4.3712897300720215,
				0.739056408405304
			],
			"min":[
				-0.7460190653800964,
				-0.0024944543838500977,
				-0.739056408405304
			],
			"type":"VEC3"
		},
		{
			"bufferView":1,
			"componentType":5126,
			"count":3899,
			"type":"VEC3"
		},
		{
			"bufferView":2,
			"componentType":5126,
			"count":3899,
			"type":"VEC2"
		},
		{
			"bufferView":3,
			"componentType":5123,
			"count":17880,
			"type":"SCALAR"
		}
	],
	"bufferViews":[
		{
			"buffer":0,
			"byteLength":46788,
			"byteOffset":0,
			"target":34962
		},
		{
			"buffer":0,
			"byteLength":46788,
			"byteOffset":46788,
			"target":34962
		},
		{
			"buffer":0,
			"byteLength":31192,
			"byteOffset":93576,
			"target":34962
		},
		{
			"buffer":0,
			"byteLength":35760,
			"byteOffset":124768,
			"target":34963
		}
	],
	"buffers":[
		{
			"byteLength":160528,
			"uri":"white_king.bin"
		}
	]
}
