{
	"asset":{
		"generator":"Khronos glTF Blender I/O v3.6.27",
		"version":"2.0"
	},
	"extensionsUsed":[
		"KHR_materials_clearcoat"
	],
	"scene":0,
	"scenes":[
		{
			"name":"Scene",
			"nodes":[
				0
			]
		}
	],
	"nodes":[
		{
			"mesh":0,
			"name":"A(texture)"
		}
	],
	"materials":[
		{
			"doubleSided":true,
			"extensions":{
				"KHR_materials_clearcoat":{
					"clearcoatFactor":1,
					"clearcoatRoughnessFactor":0.029999999329447746
				}
			},
			"name":"Material.004",
			"pbrMetallicRoughness":{
				"baseColorFactor":[
					0.4921916723251343,
					0.4921916723251343,
					0.4921916723251343,
					1
				],
				"metallicFactor":0,
				"roughnessFactor":0.5
			}
		}
	],
	"meshes":[
		{
			"name":"Sphere",
			"primitives":[
				{
					"attributes":{
						"POSITION":0,
						"NORMAL":1,
						"TEXCOORD_0":2
					},
					"indices":3,
					"material":0
				}
			]
		}
	],
	"accessors":[
		{
			"bufferView":0,
			"componentType":5126,
			"count":1613,
			"max":[
				0.6953837871551514,
				2.646803617477417,
				0.6901314854621887
			],
			"min":[
				-0.6848797798156738,
				0.0010106563568115234,
				-0.6901319622993469
			],
			"type":"VEC3"
		},
		{
			"bufferView":1,
			"componentType":5126,
			"count":1613,
			"type":"VEC3"
		},
		{
			"bufferView":2,
			"componentType":5126,
			"count":1613,
			"type":"VEC2"
		},
		{
			"bufferView":3,
			"componentType":5123,
			"count":8628,
			"type":"SCALAR"
		}
	],
	"bufferViews":[
		{
			"buffer":0,
			"byteLength":19356,
			"byteOffset":0,
			"target":34962
		},
		{
			"buffer":0,
			"byteLength":19356,
			"byteOffset":19356,
			"target":34962
		},
		{
			"buffer":0,
			"byteLength":12904,
			"byteOffset":38712,
			"target":34962
		},
		{
			"buffer":0,
			"byteLength":17256,
			"byteOffset":51616,
			"target":34963
		}
	],
	"buffers":[
		{
			"byteLength":68872,
			"uri":"white_pawn.bin"
		}
	]
}
