{
	"asset":{
		"generator":"Khronos glTF Blender I/O v3.6.27",
		"version":"2.0"
	},
	"extensionsUsed":[
		"KHR_materials_clearcoat"
	],
	"scene":0,
	"scenes":[
		{
			"name":"Scene",
			"nodes":[
				0
			]
		}
	],
	"nodes":[
		{
			"mesh":0,
			"name":"White knight",
			"rotation":[
				0,
				0.6994461417198181,
				0,
				0.714685320854187
			]
		}
	],
	"materials":[
		{
			"doubleSided":true,
			"extensions":{
				"KHR_materials_clearcoat":{
					"clearcoatFactor":1,
					"clearcoatRoughnessFactor":0.029999999329447746
				}
			},
			"name":"Material.004",
			"pbrMetallicRoughness":{
				"baseColorFactor":[
					0.4921916723251343,
					0.4921916723251343,
					0.4921916723251343,
					1
				],
				"metallicFactor":0,
				"roughnessFactor":0.5
			}
		}
	],
	"meshes":[
		{
			"name":"Mesh",
			"primitives":[
				{
					"attributes":{
						"POSITION":0,
						"NORMAL":1,
						"TEXCOORD_0":2
					},
					"indices":3,
					"material":0
				}
			]
		}
	],
	"accessors":[
		{
			"bufferView":0,
			"componentType":5126,
			"count":8825,
			"max":[
				0.8864997029304504,
				3.2531516551971436,
				0.7401123642921448
			],
			"min":[
				-0.8715758919715881,
				0.002688318956643343,
				-0.7401123642921448
			],
			"type":"VEC3"
		},
		{
			"bufferView":1,
			"componentType":5126,
			"count":8825,
			"type":"VEC3"
		},
		{
			"bufferView":2,
			"componentType":5126,
			"count":8825,
			"type":"VEC2"
		},
		{
			"bufferView":3,
			"componentType":5123,
			"count":43440,
			"type":"SCALAR"
		}
	],
	"bufferViews":[
		{
			"buffer":0,
			"byteLength":105900,
			"byteOffset":0,
			"target":34962
		},
		{
			"buffer":0,
			"byteLength":105900,
			"byteOffset":105900,
			"target":34962
		},
		{
			"buffer":0,
			"byteLength":70600,
			"byteOffset":211800,
			"target":34962
		},
		{
			"buffer":0,
			"byteLength":86880,
			"byteOffset":282400,
			"target":34963
		}
	],
	"buffers":[
		{
			"byteLength":369280,
			"uri":"white_knight.bin"
		}
	]
}
