{
	"asset":{
		"generator":"Khronos glTF Blender I/O v3.6.27",
		"version":"2.0"
	},
	"extensionsUsed":[
		"KHR_materials_clearcoat"
	],
	"scene":0,
	"scenes":[
		{
			"name":"Scene",
			"nodes":[
				0
			]
		}
	],
	"nodes":[
		{
			"mesh":0,
			"name":"White queen"
		}
	],
	"materials":[
		{
			"doubleSided":true,
			"extensions":{
				"KHR_materials_clearcoat":{
					"clearcoatFactor":1,
					"clearcoatRoughnessFactor":0.029999999329447746
				}
			},
			"name":"Material.004",
			"pbrMetallicRoughness":{
				"baseColorFactor":[
					0.4921916723251343,
					0.4921916723251343,
					0.4921916723251343,
					1
				],
				"metallicFactor":0,
				"roughnessFactor":0.5
			}
		}
	],
	"meshes":[
		{
			"name":"Cylinder.001",
			"primitives":[
				{
					"attributes":{
						"POSITION":0,
						"NORMAL":1,
						"TEXCOORD_0":2
					},
					"indices":3,
					"material":0
				}
			]
		}
	],
	"accessors":[
		{
			"bufferView":0,
			"componentType":5126,
			"count":3689,
			"max":[
				0.7828766703605652,
				3.9918484687805176,
				0.776934802532196
			],
			"min":[
				-0.7828765511512756,
				4.675239324569702e-05,
				-0.7724187970161438
			],
			"type":"VEC3"
		},
		{
			"bufferView":1,
			"componentType":5126,
			"count":3689,
			"type":"VEC3"
		},
		{
			"bufferView":2,
			"componentType":5126,
			"count":3689,
			"type":"VEC2"
		},
		{
			"bufferView":3,
			"componentType":5123,
			"count":16308,
			"type":"SCALAR"
		}
	],
	"bufferViews":[
		{
			"buffer":0,
			"byteLength":44268,
			"byteOffset":0,
			"target":34962
		},
		{
			"buffer":0,
			"byteLength":44268,
			"byteOffset":44268,
			"target":34962
		},
		{
			"buffer":0,
			"byteLength":29512,
			"byteOffset":88536,
			"target":34962
		},
		{
			"buffer":0,
			"byteLength":32616,
			"byteOffset":118048,
			"target":34963
		}
	],
	"buffers":[
		{
			"byteLength":150664,
			"uri":"white_queen.bin"
		}
	]
}
