{
	"asset":{
		"generator":"Khronos glTF Blender I/O v3.6.27",
		"version":"2.0"
	},
	"extensionsUsed":[
		"KHR_materials_clearcoat"
	],
	"scene":0,
	"scenes":[
		{
			"name":"Scene",
			"nodes":[
				0
			]
		}
	],
	"nodes":[
		{
			"mesh":0,
			"name":"White bitshop"
		}
	],
	"materials":[
		{
			"doubleSided":true,
			"extensions":{
				"KHR_materials_clearcoat":{
					"clearcoatFactor":1,
					"clearcoatRoughnessFactor":0.029999999329447746
				}
			},
			"name":"Material.004",
			"pbrMetallicRoughness":{
				"baseColorFactor":[
					0.4921916723251343,
					0.4921916723251343,
					0.4921916723251343,
					1
				],
				"metallicFactor":0,
				"roughnessFactor":0.5
			}
		}
	],
	"meshes":[
		{
			"name":"Sphere.001",
			"primitives":[
				{
					"attributes":{
						"POSITION":0,
						"NORMAL":1,
						"TEXCOORD_0":2
					},
					"indices":3,
					"material":0
				}
			]
		}
	],
	"accessors":[
		{
			"bufferView":0,
			"componentType":5126,
			"count":7210,
			"max":[
				0.786566436290741,
				3.59765362739563,
				0.787765383720398
			],
			"min":[
				-0.7889649271965027,
				-0.0018992424011230469,
				-0.7877659797668457
			],
			"type":"VEC3"
		},
		{
			"bufferView":1,
			"componentType":5126,
			"count":7210,
			"type":"VEC3"
		},
		{
			"bufferView":2,
			"componentType":5126,
			"count":7210,
			"type":"VEC2"
		},
		{
			"bufferView":3,
			"componentType":5123,
			"count":32850,
			"type":"SCALAR"
		}
	],
	"bufferViews":[
		{
			"buffer":0,
			"byteLength":86520,
			"byteOffset":0,
			"target":34962
		},
		{
			"buffer":0,
			"byteLength":86520,
			"byteOffset":86520,
			"target":34962
		},
		{
			"buffer":0,
			"byteLength":57680,
			"byteOffset":173040,
			"target":34962
		},
		{
			"buffer":0,
			"byteLength":65700,
			"byteOffset":230720,
			"target":34963
		}
	],
	"buffers":[
		{
			"byteLength":296420,
			"uri":"white_bishop.bin"
		}
	]
}
